<?xml version="1.0" standalone="no"?><!DOCTYPE svg PUBLIC "-//W3C//DTD SVG 1.1//EN" "http://www.w3.org/Graphics/SVG/1.1/DTD/svg11.dtd"><svg t="1683428071075" class="icon" viewBox="0 0 1024 1024" version="1.1" xmlns="http://www.w3.org/2000/svg" p-id="10966" xmlns:xlink="http://www.w3.org/1999/xlink" width="200" height="200"><path d="M962.189057 123.621803l-123.62172 859.170957 61.81086 41.20724c68.274216 0 123.62172-55.347505 123.621721-123.62172L962.189057 123.621803z" fill="#FFD87C" p-id="10967"></path><path d="M61.81086 123.621803L0 900.37828c0 68.274216 55.347505 123.62172 123.62172 123.62172h776.756477v-123.62172h61.81086V123.621803H61.81086z" fill="#FFEBBE" p-id="10968"></path><path d="M856.675859 185.432663L838.567337 190.919407 653.134756 573.810901l185.432581 382.893555 18.10028 5.484684H900.378197c12.436345 0 24.003217-3.685988 33.699281-10.005118v-175.851897H962.189057V185.432663h-105.513198z" fill="#FFEBBE" p-id="10969"></path><path d="M652.710322 247.243523V185.432663h-87.412919l-203.965537 61.81086V185.432663h-87.412918L61.81086 247.243523v211.469376l28.11364 493.473183A61.514168 61.514168 0 0 0 123.62172 962.18914h43.71058l198.977401-61.81086 198.9774 61.81086h87.414979v-61.81086L838.567337 956.704456V190.919407L652.710322 247.243523z" fill="#FFFFFF" p-id="10970"></path><path d="M962.189057 185.432663h-18.10028L838.567337 290.954103l-41.20724 137.170661 41.20724 137.170661 123.62172 123.621721z" fill="#0CBF4E" p-id="10971"></path><path d="M701.396676 432.416498L838.567337 565.295425V290.954103z" fill="#5DC75D" p-id="10972"></path><path d="M555.706418 486.402104L856.675859 185.432663h-203.965537l-198.985642 198.985642zM838.567337 652.710404h-41.20724l41.20724 203.963477 95.510141 95.510141C950.995111 941.156964 962.189057 922.080073 962.189057 900.37828v-124.046155l-123.62172-123.621721z" fill="#FF673B" p-id="10973"></path><path d="M708.680056 522.823123l-101.981739 101.983798L838.567337 856.673881v-203.963477z" fill="#FF8C51" p-id="10974"></path><path d="M61.81086 185.432663v212.106027L273.916887 185.432663z" fill="#5DC75D" p-id="10975"></path><path d="M167.3323 962.18914h397.954801l-198.9774-198.977401z" fill="#FF673B" p-id="10976"></path><path d="M361.331866 185.432663l-53.297444 53.297444 101.983799 101.981739L565.297403 185.432663z" fill="#5DC75D" p-id="10977"></path><path d="M61.81086 458.712899V900.37828c0 21.701793 11.193947 40.778685 28.11364 51.805742l232.680802-232.678742L61.81086 458.712899zM555.706418 865.193478L652.70208 962.18914h203.965537l-198.9774-198.977401zM511.999959 821.49526l-101.983799-101.981739L511.999959 617.531783l101.981738 101.981738z" fill="#FF8C51" p-id="10978"></path><path d="M198.763123 508.254303l145.688197-145.688197 167.542458 167.542457-145.688198 145.688197z" fill="#FF673B" p-id="10979"></path><path d="M0 123.621803v776.756477c0-68.274216 55.347505-123.62172 123.62172-123.621721V0.000082C55.347505 0.000082 0 55.347587 0 123.621803z" fill="#FFD87C" p-id="10980"></path><path d="M962.189057 16.579815l-20.60362 388.378239 20.60362 388.378238c36.94023 21.378316 61.81086 61.293709 61.810861 107.041988V123.621803c0-45.750338-24.87063-85.663671-61.810861-107.041988z" fill="#FFC43B" p-id="10981"></path><path d="M900.378197 0.000082v776.756477a122.987129 122.987129 0 0 1 61.81086 16.579733v-776.756477A122.987129 122.987129 0 0 0 900.378197 0.000082z" fill="#FFD87C" p-id="10982"></path></svg>