<?xml version="1.0" standalone="no"?><!DOCTYPE svg PUBLIC "-//W3C//DTD SVG 1.1//EN" "http://www.w3.org/Graphics/SVG/1.1/DTD/svg11.dtd"><svg t="1683383704014" class="icon" viewBox="0 0 1024 1024" version="1.1" xmlns="http://www.w3.org/2000/svg" p-id="2648" xmlns:xlink="http://www.w3.org/1999/xlink" width="200" height="200"><path d="M863.432 100.568l-30 60 30 60c33.138 0 60-26.862 60-60s-26.862-60-60-60z" fill="#5AECFF" p-id="2649"></path><path d="M803.432 160.568c0 33.136 26.862 60 60 60v-120c-33.138 0-60 26.862-60 60z" fill="#ADF5FF" p-id="2650"></path><path d="M160.568 803.432l-30 60 30 60c33.138 0 60-26.862 60-60s-26.862-60-60-60z" fill="#5AECFF" p-id="2651"></path><path d="M100.568 863.432c0 33.136 26.862 60 60 60v-120c-33.138 0-60 26.862-60 60z" fill="#ADF5FF" p-id="2652"></path><path d="M805.172 275c-54.212-66.976-130.894-115.016-218.586-132.62L512 165v694l74.586 22.622C759.072 847.008 889 694.676 889 512l-83.828-237z" fill="#2275FF" p-id="2653"></path><path d="M586.262 145.43l-148.896-3.028c-58.572 11.764-112.224 37.112-157.558 72.598L139.734 452.158A379.558 379.558 0 0 0 135 512c0 22.088 1.916 43.728 5.562 64.774l110.48 207.27c50.648 48.592 114.822 83.194 186.326 97.554l148.896-3.028C725.506 838.816 829 689.792 829 512S725.506 185.184 586.262 145.43z" fill="#199AFF" p-id="2654"></path><path d="M335 632v-90h-140c-24.124 0-44.908 14.244-54.438 34.774 14 80.834 53.742 152.836 110.48 207.27l68.634-101.794A89.59 89.59 0 0 0 335 632zM285 305h15c24.852 0 45-20.148 45-45 0-24.854-20.148-45-45-45h-20.19c-73.264 57.352-124.772 141.212-140.076 237.158H285V305z" fill="#AED06D" p-id="2655"></path><path d="M586.262 878.57L512 889c25.536 0 50.472-2.554 74.584-7.392-0.102-1.014-0.182-2.034-0.322-3.038z" fill="#D6FAFF" p-id="2656"></path><path d="M512 814c-38.924 0-70.916 29.652-74.634 67.598A378.674 378.674 0 0 0 512 889c25.578 0 50.438-3.628 74.262-10.43C581.184 842.088 549.88 814 512 814z" fill="#FFFFFF" p-id="2657"></path><path d="M512 135l74.262 10.43c0.14-1.002 0.22-2.022 0.322-3.038A378.802 378.802 0 0 0 512 135z" fill="#D6FAFF" p-id="2658"></path><path d="M512 210c37.88 0 69.184-28.088 74.262-64.57A269.858 269.858 0 0 0 512 135a378.704 378.704 0 0 0-74.634 7.402C441.084 180.348 473.076 210 512 210z" fill="#FFFFFF" p-id="2659"></path><path d="M467 557c0 24.852 20.148 45 45 45h10v77c0 33 27 60 60 60h80V512h-150c-24.852 0-45 20.146-45 45z" fill="#AED06D" p-id="2660"></path><path d="M805.172 275h-46.658L829 512h60c0-89.798-31.416-172.246-83.828-237z" fill="#5DC75D" p-id="2661"></path><path d="M758.514 275H662v60h-50c-16.568 0-30 13.432-30 30v10h-70V452h150v60h167c0-89.798-26.416-172.246-70.486-237z" fill="#AED06D" p-id="2662"></path><path d="M1004.566 445.756m-15 0a15 15 0 1 0 30 0 15 15 0 1 0-30 0Z" p-id="2663"></path><path d="M991.342 380.694m-15 0a15 15 0 1 0 30 0 15 15 0 1 0-30 0Z" p-id="2664"></path><path d="M969.562 317.976m-15 0a15 15 0 1 0 30 0 15 15 0 1 0-30 0Z" p-id="2665"></path><path d="M939.62 258.72m-15 0a15 15 0 1 0 30 0 15 15 0 1 0-30 0Z" p-id="2666"></path><path d="M30 512C30 246.224 246.224 30 512 30c104.214 0 202.776 32.466 285.988 93.994a74.506 74.506 0 0 0-9.556 36.572c0 41.356 33.644 75 75 75s75-33.644 75-75-33.644-75-75-75c-17.226 0-33.102 5.852-45.778 15.652C728.864 34.962 623.47 0 512 0 375.24 0 246.666 53.258 149.96 149.96 53.258 246.666 0 375.24 0 512a15 15 0 0 0 30 0zM908.432 160.568c0 24.814-20.188 45-45 45s-45-20.186-45-45 20.188-45 45-45 45 20.186 45 45zM1009 497a15 15 0 0 0-15 15c0 265.776-216.224 482-482 482-104.214 0-202.776-32.466-285.988-93.996a74.528 74.528 0 0 0 9.556-36.572c0-41.356-33.644-75-75-75s-75 33.644-75 75 33.644 75 75 75c17.226 0 33.102-5.852 45.78-15.654C295.136 989.038 400.53 1024 512 1024c136.76 0 265.336-53.258 362.04-149.96C970.742 777.334 1024 648.76 1024 512a15 15 0 0 0-15-15zM115.568 863.432c0-24.814 20.186-45 45-45s45 20.186 45 45-20.186 45-45 45-45-20.186-45-45z" p-id="2667"></path><path d="M19.434 578.244m-15 0a15 15 0 1 0 30 0 15 15 0 1 0-30 0Z" p-id="2668"></path><path d="M32.658 643.306m-15 0a15 15 0 1 0 30 0 15 15 0 1 0-30 0Z" p-id="2669"></path><path d="M54.438 706.024m-15 0a15 15 0 1 0 30 0 15 15 0 1 0-30 0Z" p-id="2670"></path><path d="M84.38 765.28m-15 0a15 15 0 1 0 30 0 15 15 0 1 0-30 0Z" p-id="2671"></path><path d="M722 617a15 15 0 0 0-15 15v30c0 8.284 6.714 15 15 15s15-6.716 15-15v-30a15 15 0 0 0-15-15zM512 330a15 15 0 0 0 15-15v-30a15 15 0 0 0-30 0v30a15 15 0 0 0 15 15z" p-id="2672"></path><path d="M512 120C295.85 120 120 295.85 120 512s175.85 392 392 392 392-175.85 392-392S728.15 120 512 120z m150 317h-135V390H582a15 15 0 0 0 15-15v-10c0-8.272 6.728-15 15-15h50a15 15 0 0 0 15-15V290h120.734c44.898 57.658 72.742 129.2 75.932 207H677V452a15 15 0 0 0-15-15zM568.792 154.468C560.714 178.312 538.282 195 512 195s-48.716-16.688-56.792-40.532a362.98 362.98 0 0 1 113.584 0zM285.3 230H300c16.542 0 30 13.458 30 30s-13.458 30-30 30h-15a15 15 0 0 0-15 15v132.158H157.8c17.53-83.066 63.63-155.712 127.5-207.158zM156.27 579.152c8.036-13.578 22.78-22.152 38.73-22.152H320V632c0 15.004-4.414 29.48-12.764 41.864l-58.33 86.514c-46.644-49.38-79.566-111.84-92.636-181.226z m298.938 290.38C463.284 845.688 485.718 829 512 829s48.714 16.688 56.792 40.532a362.98 362.98 0 0 1-113.584 0z m143.162-5.972c-10.982-37.764-45.592-64.56-86.37-64.56-40.778 0-75.39 26.796-86.372 64.56-58.466-14.368-111.392-42.968-154.878-81.916l61.36-91.008C343.814 673.278 350 653.002 350 632v-90a15 15 0 0 0-15-15h-140c-15.998 0-31.264 5.184-43.816 14.226A365.194 365.194 0 0 1 150 512c0-15.182 0.952-30.146 2.776-44.842H270V482a15 15 0 0 0 30 0v-162c33.084 0 60-26.916 60-60 0-25.392-15.862-47.134-38.19-55.88a359.924 359.924 0 0 1 103.82-43.68c10.982 37.764 45.592 64.56 86.372 64.56 40.778 0 75.388-26.796 86.37-64.56 66.972 16.458 126.672 51.594 173.244 99.56H634c-8.286 0-15 6.716-15 15s6.714 15 15 15h13v30H612c-23.124 0-42.228 17.532-44.724 40H512a15 15 0 0 0-15 15v62H482a15 15 0 0 0 0 30h165v30H512c-33.084 0-60 26.916-60 60 0 31.4 24.248 57.244 55 59.794V679c0 41.356 33.644 75 75 75h80a15 15 0 0 0 15-15V572c0-8.284-6.714-15-15-15s-15 6.716-15 15v152H582c-24.812 0-45-20.186-45-45V602a15 15 0 0 0-15-15h-10c-16.542 0-30-13.458-30-30s13.458-30 30-30h361.666c-6.688 163.208-121.934 298.874-275.296 336.56z" p-id="2673"></path></svg>